<svg width="32" height="32" viewBox="0 0 32 32" fill="none" xmlns="http://www.w3.org/2000/svg">
  <!-- Background Circle -->
  <circle cx="16" cy="16" r="16" fill="url(#gradient)" />
  
  <!-- Admin Symbol -->
  <path d="M16 8C17.6569 8 19 9.34315 19 11C19 12.6569 17.6569 14 16 14C14.3431 14 13 12.6569 13 11C13 9.34315 14.3431 8 16 8Z" fill="white"/>
  <path d="M22 22C22 23.1046 21.1046 24 20 24H12C10.8954 24 10 23.1046 10 22C10 18.6863 12.6863 16 16 16C19.3137 16 22 18.6863 22 22Z" fill="white"/>
  
  <!-- Gradient Definition -->
  <defs>
    <linearGradient id="gradient" x1="0" y1="0" x2="32" y2="32" gradientUnits="userSpaceOnUse">
      <stop offset="0%" style="stop-color:#0891B2"/>
      <stop offset="100%" style="stop-color:#2563EB"/>
    </linearGradient>
  </defs>
</svg> 